<svg xmlns="http://www.w3.org/2000/svg" xmlns:xlink="http://www.w3.org/1999/xlink" viewBox="0 0 1920 1080" width="1920" height="1080" style="width: 100%; height: 100%; transform: translate3d(0px, 0px, 0px);" preserveAspectRatio="xMidYMid meet"><defs><clipPath id="__lottie_element_2"><rect width="1920" height="1080" x="0" y="0"></rect></clipPath><clipPath id="__lottie_element_4"><path fill="#ffffff" clip-rule="nonzero" d=" M586.8209838867188,-42.42900085449219 C586.8209838867188,-42.42900085449219 240.5659942626953,69.48899841308594 240.5659942626953,69.48899841308594 C240.5659942626953,69.48899841308594 125.18599700927734,57.43299865722656 125.18599700927734,57.43299865722656 C125.18599700927734,57.43299865722656 -88,85 -88,85 C-88,85 -53,257 -53,257 C-53,257 130.23199462890625,166.531005859375 130.23199462890625,166.531005859375 C130.23199462890625,166.531005859375 248.36099243164062,209.5260009765625 248.36099243164062,209.5260009765625 C248.36099243164062,209.5260009765625 657.7860107421875,124.39299774169922 657.7860107421875,124.39299774169922 C657.7860107421875,124.39299774169922 586.8209838867188,-42.42900085449219 586.8209838867188,-42.42900085449219" fill-opacity="1"></path></clipPath><clipPath id="__lottie_element_7"><path fill="#ffffff" clip-rule="nonzero" d=" M0.9679999947547913,-0.20600000023841858 C0.9679999947547913,-0.20600000023841858 0.527999997138977,0.5389999747276306 0.527999997138977,0.5389999747276306 C0.527999997138977,0.5389999747276306 0.30399999022483826,0.2630000114440918 0.30399999022483826,0.2630000114440918 C0.30399999022483826,0.2630000114440918 -0.0989999994635582,0.8790000081062317 -0.0989999994635582,0.8790000081062317 C-0.0989999994635582,0.8790000081062317 -0.0989999994635582,1.2339999675750732 -0.0989999994635582,1.2339999675750732 C-0.0989999994635582,1.2339999675750732 0.30300000309944153,0.6380000114440918 0.30300000309944153,0.6380000114440918 C0.30300000309944153,0.6380000114440918 0.5149999856948853,1.0169999599456787 0.5149999856948853,1.0169999599456787 C0.5149999856948853,1.0169999599456787 1.059000015258789,0.28600001335144043 1.059000015258789,0.28600001335144043 C1.059000015258789,0.28600001335144043 0.9679999947547913,-0.20600000023841858 0.9679999947547913,-0.20600000023841858" fill-opacity="1"></path></clipPath></defs><g clip-path="url(#__lottie_element_2)"><g style="display: block;" transform="matrix(1,0,0,1,0,0)" opacity="1"><rect width="1920" height="1080" fill="#ffffff00"></rect></g><g style="display: block;" transform="matrix(0.987060010433197,0,0,0.987060010433197,416.12994384765625,161.56414794921875)" opacity="1"><g opacity="1" transform="matrix(1,0,0,1,551.1599731445312,789.9580078125)"><path fill="rgb(203,203,203)" fill-opacity="1" d=" M35.35200119018555,67.40399932861328 C35.35200119018555,67.40399932861328 -37.119998931884766,67.40399932861328 -37.119998931884766,67.40399932861328 C-37.119998931884766,67.40399932861328 -45.95800018310547,-67.40399932861328 -45.95800018310547,-67.40399932861328 C-45.95800018310547,-67.40399932861328 45.95800018310547,-67.40399932861328 45.95800018310547,-67.40399932861328 C45.95800018310547,-67.40399932861328 35.35200119018555,67.40399932861328 35.35200119018555,67.40399932861328z"></path></g><g opacity="1" transform="matrix(1,0,0,1,551.1599731445312,865.25)"><path fill="rgb(219,219,219)" fill-opacity="1" d=" M104.91000366210938,26.834999084472656 C104.91000366210938,26.834999084472656 -104.91000366210938,26.834999084472656 -104.91000366210938,26.834999084472656 C-119.73100280761719,26.834999084472656 -131.7449951171875,14.821000099182129 -131.7449951171875,0 C-131.7449951171875,-14.821000099182129 -119.73100280761719,-26.834999084472656 -104.91000366210938,-26.834999084472656 C-104.91000366210938,-26.834999084472656 104.91000366210938,-26.834999084472656 104.91000366210938,-26.834999084472656 C119.7300033569336,-26.834999084472656 131.7449951171875,-14.821000099182129 131.7449951171875,0 C131.7449951171875,14.821000099182129 119.7300033569336,26.834999084472656 104.91000366210938,26.834999084472656z"></path></g><g opacity="1" transform="matrix(1,0,0,1,551.1599731445312,385.7120056152344)"><path fill="rgb(170,229,200)" fill-opacity="1" d=" M455.489013671875,352.97900390625 C455.489013671875,352.97900390625 -455.489990234375,352.97900390625 -455.489990234375,352.97900390625 C-489.89599609375,352.97900390625 -517.7869873046875,325.0870056152344 -517.7869873046875,290.6809997558594 C-517.7869873046875,290.6809997558594 -517.7869873046875,-279.4460144042969 -517.7869873046875,-279.4460144042969 C-517.7869873046875,-320.0570068359375 -484.8659973144531,-352.97900390625 -444.2560119628906,-352.97900390625 C-444.2560119628906,-352.97900390625 444.2550048828125,-352.97900390625 444.2550048828125,-352.97900390625 C484.864990234375,-352.97900390625 517.7869873046875,-320.0570068359375 517.7869873046875,-279.4460144042969 C517.7869873046875,-279.4460144042969 517.7869873046875,290.6809997558594 517.7869873046875,290.6809997558594 C517.7869873046875,325.0870056152344 489.8949890136719,352.97900390625 455.489013671875,352.97900390625z"></path><path stroke-linecap="butt" stroke-linejoin="miter" fill-opacity="0" stroke-miterlimit="10" stroke="rgb(0,0,0)" stroke-opacity="1" stroke-width="13" d=" M455.489013671875,352.97900390625 C455.489013671875,352.97900390625 -455.489990234375,352.97900390625 -455.489990234375,352.97900390625 C-489.89599609375,352.97900390625 -517.7869873046875,325.0870056152344 -517.7869873046875,290.6809997558594 C-517.7869873046875,290.6809997558594 -517.7869873046875,-279.4460144042969 -517.7869873046875,-279.4460144042969 C-517.7869873046875,-320.0570068359375 -484.8659973144531,-352.97900390625 -444.2560119628906,-352.97900390625 C-444.2560119628906,-352.97900390625 444.2550048828125,-352.97900390625 444.2550048828125,-352.97900390625 C484.864990234375,-352.97900390625 517.7869873046875,-320.0570068359375 517.7869873046875,-279.4460144042969 C517.7869873046875,-279.4460144042969 517.7869873046875,290.6809997558594 517.7869873046875,290.6809997558594 C517.7869873046875,325.0870056152344 489.8949890136719,352.97900390625 455.489013671875,352.97900390625z"></path></g><g opacity="1" transform="matrix(1,0,0,1,552.72998046875,693.8829956054688)"><path fill="rgb(234,234,232)" fill-opacity="1" d=" M-512.9749755859375,-26.426000595092773 C-512.9749755859375,-26.426000595092773 -522.0250244140625,17.011999130249023 -482.2969970703125,34.28200149536133 C-474.1910095214844,37.80500030517578 -465.3919982910156,39.446998596191406 -456.5539855957031,39.446998596191406 C-456.5539855957031,39.446998596191406 453.968994140625,39.446998596191406 453.968994140625,39.446998596191406 C464.8689880371094,39.446998596191406 475.6409912109375,36.85300064086914 485.2330017089844,31.674999237060547 C502.3529968261719,22.433000564575195 522.0250244140625,3.2950000762939453 510.343994140625,-34.084999084472656 C510.343994140625,-34.084999084472656 -513.8619995117188,-39.446998596191406 -513.8619995117188,-39.446998596191406 C-513.8619995117188,-39.446998596191406 -512.9749755859375,-26.426000595092773 -512.9749755859375,-26.426000595092773z"></path></g><g opacity="1" transform="matrix(1,0,0,1,0,0)"><path stroke-linecap="butt" stroke-linejoin="miter" fill-opacity="0" stroke-miterlimit="10" stroke="rgb(0,0,0)" stroke-opacity="1" stroke-width="18" d=" M33.37300109863281,659.7979736328125 C33.37300109863281,659.7979736328125 1068.946044921875,659.7979736328125 1068.946044921875,659.7979736328125"></path></g></g><g style="display: block;" transform="matrix(0.958687961101532,0,0,0.958687961101532,1232.148193359375,377.9513244628906)" opacity="1"><g opacity="1" transform="matrix(1,0,0,1,51.01499938964844,157.56300354003906)"><path fill="rgb(237,197,171)" fill-opacity="1" d=" M42.512001037597656,149.48800659179688 C42.512001037597656,149.48800659179688 -42.512001037597656,149.48800659179688 -42.512001037597656,149.48800659179688 C-42.512001037597656,149.48800659179688 -42.512001037597656,-149.48800659179688 -42.512001037597656,-149.48800659179688 C-42.512001037597656,-149.48800659179688 42.512001037597656,-149.48800659179688 42.512001037597656,-149.48800659179688 C42.512001037597656,-149.48800659179688 42.512001037597656,149.48800659179688 42.512001037597656,149.48800659179688z"></path><path stroke-linecap="butt" stroke-linejoin="miter" fill-opacity="0" stroke-miterlimit="10" stroke="rgb(0,0,0)" stroke-opacity="1" stroke-width="11" d=" M42.512001037597656,149.48800659179688 C42.512001037597656,149.48800659179688 -42.512001037597656,149.48800659179688 -42.512001037597656,149.48800659179688 C-42.512001037597656,149.48800659179688 -42.512001037597656,-149.48800659179688 -42.512001037597656,-149.48800659179688 C-42.512001037597656,-149.48800659179688 42.512001037597656,-149.48800659179688 42.512001037597656,-149.48800659179688 C42.512001037597656,-149.48800659179688 42.512001037597656,149.48800659179688 42.512001037597656,149.48800659179688z"></path></g></g><g style="display: block;" transform="matrix(1,0,0,1,1126,437)" opacity="1"><g opacity="1" transform="matrix(1,0,0,1,50.90999984741211,121.46600341796875)"><path fill="rgb(247,186,97)" fill-opacity="1" d=" M42.512001037597656,113.58499908447266 C42.512001037597656,113.58499908447266 -42.512001037597656,113.58499908447266 -42.512001037597656,113.58499908447266 C-42.512001037597656,113.58499908447266 -42.512001037597656,-113.58499908447266 -42.512001037597656,-113.58499908447266 C-42.512001037597656,-113.58499908447266 42.512001037597656,-113.58499908447266 42.512001037597656,-113.58499908447266 C42.512001037597656,-113.58499908447266 42.512001037597656,113.58499908447266 42.512001037597656,113.58499908447266z"></path><path stroke-linecap="butt" stroke-linejoin="miter" fill-opacity="0" stroke-miterlimit="10" stroke="rgb(0,0,0)" stroke-opacity="1" stroke-width="11" d=" M42.512001037597656,113.58499908447266 C42.512001037597656,113.58499908447266 -42.512001037597656,113.58499908447266 -42.512001037597656,113.58499908447266 C-42.512001037597656,113.58499908447266 -42.512001037597656,-113.58499908447266 -42.512001037597656,-113.58499908447266 C-42.512001037597656,-113.58499908447266 42.512001037597656,-113.58499908447266 42.512001037597656,-113.58499908447266 C42.512001037597656,-113.58499908447266 42.512001037597656,113.58499908447266 42.512001037597656,113.58499908447266z"></path></g></g><g style="display: block;" transform="matrix(1,0,0,1,1024,495)" opacity="1"><g opacity="1" transform="matrix(1,0,0,1,50.36199951171875,92.77400207519531)"><path fill="rgb(251,214,153)" fill-opacity="1" d=" M42.512001037597656,84.2770004272461 C42.512001037597656,84.2770004272461 -42.512001037597656,84.2770004272461 -42.512001037597656,84.2770004272461 C-42.512001037597656,84.2770004272461 -42.512001037597656,-84.2770004272461 -42.512001037597656,-84.2770004272461 C-42.512001037597656,-84.2770004272461 42.512001037597656,-84.2770004272461 42.512001037597656,-84.2770004272461 C42.512001037597656,-84.2770004272461 42.512001037597656,84.2770004272461 42.512001037597656,84.2770004272461z"></path><path stroke-linecap="butt" stroke-linejoin="miter" fill-opacity="0" stroke-miterlimit="10" stroke="rgb(0,0,0)" stroke-opacity="1" stroke-width="11" d=" M42.512001037597656,84.2770004272461 C42.512001037597656,84.2770004272461 -42.512001037597656,84.2770004272461 -42.512001037597656,84.2770004272461 C-42.512001037597656,84.2770004272461 -42.512001037597656,-84.2770004272461 -42.512001037597656,-84.2770004272461 C-42.512001037597656,-84.2770004272461 42.512001037597656,-84.2770004272461 42.512001037597656,-84.2770004272461 C42.512001037597656,-84.2770004272461 42.512001037597656,84.2770004272461 42.512001037597656,84.2770004272461z"></path></g></g><g style="display: block;" transform="matrix(1,0,0,1,921,528)" opacity="1"><g opacity="1" transform="matrix(1,0,0,1,50.72100067138672,76.34400177001953)"><path fill="rgb(247,186,97)" fill-opacity="1" d=" M42.512001037597656,68.14199829101562 C42.512001037597656,68.14199829101562 -42.512001037597656,68.14199829101562 -42.512001037597656,68.14199829101562 C-42.512001037597656,68.14199829101562 -42.512001037597656,-68.14199829101562 -42.512001037597656,-68.14199829101562 C-42.512001037597656,-68.14199829101562 42.512001037597656,-68.14199829101562 42.512001037597656,-68.14199829101562 C42.512001037597656,-68.14199829101562 42.512001037597656,68.14199829101562 42.512001037597656,68.14199829101562z"></path><path stroke-linecap="butt" stroke-linejoin="miter" fill-opacity="0" stroke-miterlimit="10" stroke="rgb(0,0,0)" stroke-opacity="1" stroke-width="11" d=" M42.512001037597656,68.14199829101562 C42.512001037597656,68.14199829101562 -42.512001037597656,68.14199829101562 -42.512001037597656,68.14199829101562 C-42.512001037597656,68.14199829101562 -42.512001037597656,-68.14199829101562 -42.512001037597656,-68.14199829101562 C-42.512001037597656,-68.14199829101562 42.512001037597656,-68.14199829101562 42.512001037597656,-68.14199829101562 C42.512001037597656,-68.14199829101562 42.512001037597656,68.14199829101562 42.512001037597656,68.14199829101562z"></path></g></g><g style="display: block;" transform="matrix(1,0,0,1,817,569)" opacity="1"><g opacity="1" transform="matrix(1,0,0,1,50.79999923706055,55.86000061035156)"><path fill="rgb(251,214,153)" fill-opacity="1" d=" M42.512001037597656,47.625999450683594 C42.512001037597656,47.625999450683594 -42.512001037597656,47.625999450683594 -42.512001037597656,47.625999450683594 C-42.512001037597656,47.625999450683594 -42.512001037597656,-47.625999450683594 -42.512001037597656,-47.625999450683594 C-42.512001037597656,-47.625999450683594 42.512001037597656,-47.625999450683594 42.512001037597656,-47.625999450683594 C42.512001037597656,-47.625999450683594 42.512001037597656,47.625999450683594 42.512001037597656,47.625999450683594z"></path><path stroke-linecap="butt" stroke-linejoin="miter" fill-opacity="0" stroke-miterlimit="10" stroke="rgb(0,0,0)" stroke-opacity="1" stroke-width="11" d=" M42.512001037597656,47.625999450683594 C42.512001037597656,47.625999450683594 -42.512001037597656,47.625999450683594 -42.512001037597656,47.625999450683594 C-42.512001037597656,47.625999450683594 -42.512001037597656,-47.625999450683594 -42.512001037597656,-47.625999450683594 C-42.512001037597656,-47.625999450683594 42.512001037597656,-47.625999450683594 42.512001037597656,-47.625999450683594 C42.512001037597656,-47.625999450683594 42.512001037597656,47.625999450683594 42.512001037597656,47.625999450683594z"></path></g></g><g style="display: block;" transform="matrix(1,0,0,1,714,484)" opacity="1"><g opacity="1" transform="matrix(1,0,0,1,51.95199966430664,98.36199951171875)"><path fill="rgb(247,186,97)" fill-opacity="1" d=" M43.21500015258789,90.1240005493164 C43.21500015258789,90.1240005493164 -43.21500015258789,90.1240005493164 -43.21500015258789,90.1240005493164 C-43.21500015258789,90.1240005493164 -43.21500015258789,-90.1240005493164 -43.21500015258789,-90.1240005493164 C-43.21500015258789,-90.1240005493164 43.21500015258789,-90.1240005493164 43.21500015258789,-90.1240005493164 C43.21500015258789,-90.1240005493164 43.21500015258789,90.1240005493164 43.21500015258789,90.1240005493164z"></path><path stroke-linecap="butt" stroke-linejoin="miter" fill-opacity="0" stroke-miterlimit="10" stroke="rgb(0,0,0)" stroke-opacity="1" stroke-width="11" d=" M43.21500015258789,90.1240005493164 C43.21500015258789,90.1240005493164 -43.21500015258789,90.1240005493164 -43.21500015258789,90.1240005493164 C-43.21500015258789,90.1240005493164 -43.21500015258789,-90.1240005493164 -43.21500015258789,-90.1240005493164 C-43.21500015258789,-90.1240005493164 43.21500015258789,-90.1240005493164 43.21500015258789,-90.1240005493164 C43.21500015258789,-90.1240005493164 43.21500015258789,90.1240005493164 43.21500015258789,90.1240005493164z"></path></g></g><g style="display: block;" transform="matrix(1,0,0,1,613,528)" opacity="1"><g opacity="1" transform="matrix(1,0,0,1,51.12200164794922,76.34400177001953)"><path fill="rgb(251,214,153)" fill-opacity="1" d=" M42.49700164794922,68.14199829101562 C42.49700164794922,68.14199829101562 -42.49700164794922,68.14199829101562 -42.49700164794922,68.14199829101562 C-42.49700164794922,68.14199829101562 -42.49700164794922,-68.14199829101562 -42.49700164794922,-68.14199829101562 C-42.49700164794922,-68.14199829101562 42.49700164794922,-68.14199829101562 42.49700164794922,-68.14199829101562 C42.49700164794922,-68.14199829101562 42.49700164794922,68.14199829101562 42.49700164794922,68.14199829101562z"></path><path stroke-linecap="butt" stroke-linejoin="miter" fill-opacity="0" stroke-miterlimit="10" stroke="rgb(0,0,0)" stroke-opacity="1" stroke-width="11" d=" M42.49700164794922,68.14199829101562 C42.49700164794922,68.14199829101562 -42.49700164794922,68.14199829101562 -42.49700164794922,68.14199829101562 C-42.49700164794922,68.14199829101562 -42.49700164794922,-68.14199829101562 -42.49700164794922,-68.14199829101562 C-42.49700164794922,-68.14199829101562 42.49700164794922,-68.14199829101562 42.49700164794922,-68.14199829101562 C42.49700164794922,-68.14199829101562 42.49700164794922,68.14199829101562 42.49700164794922,68.14199829101562z"></path></g></g><g style="display: block;" transform="matrix(1,0,0,1,586,680)" opacity="1"><g opacity="1" transform="matrix(1,0,0,1,387.2070007324219,17.104999542236328)"><path fill="rgb(0,0,0)" fill-opacity="1" d=" M369.4280090332031,16.618999481201172 C369.4280090332031,16.618999481201172 -369.427001953125,16.618999481201172 -369.427001953125,16.618999481201172 C-378.6059875488281,16.618999481201172 -386.0469970703125,9.180000305175781 -386.0469970703125,0.0010000000474974513 C-386.0469970703125,-9.178000450134277 -378.6059875488281,-16.618999481201172 -369.427001953125,-16.618999481201172 C-369.427001953125,-16.618999481201172 369.4280090332031,-16.618999481201172 369.4280090332031,-16.618999481201172 C378.60699462890625,-16.618999481201172 386.0469970703125,-9.178000450134277 386.0469970703125,0.0010000000474974513 C386.0469970703125,9.180000305175781 378.60699462890625,16.618999481201172 369.4280090332031,16.618999481201172z"></path></g></g><g clip-path="url(#__lottie_element_7)" style="display: block;" transform="matrix(1,0,0,1,621,311)" opacity="1"><g opacity="1" transform="matrix(1,0,0,1,298.8710021972656,99.3759994506836)"><path fill="rgb(0,0,0)" fill-opacity="1" d=" M-298.2460021972656,65.27799987792969 C-298.2460021972656,65.27799987792969 -110.7040023803711,-25.57699966430664 -110.7040023803711,-25.57699966430664 C-110.7040023803711,-25.57699966430664 13.88599967956543,34.505001068115234 13.88599967956543,34.505001068115234 C13.88599967956543,34.505001068115234 230.76800537109375,-71.00599670410156 230.76800537109375,-71.00599670410156 C228.75,-80.33100128173828 226.73300170898438,-89.65699768066406 224.71400451660156,-98.98300170898438 C249.22500610351562,-94.55699920654297 273.7349853515625,-90.13200378417969 298.2460021972656,-85.70600128173828 C298.2460021972656,-85.70600128173828 260.4590148925781,-20.344999313354492 260.4590148925781,-20.344999313354492 C255.69400024414062,-29.202999114990234 250.92999267578125,-38.0629997253418 246.16700744628906,-46.922000885009766 C166.54200744628906,-7.811999797821045 86.91699981689453,31.29800033569336 7.291999816894531,70.40699768066406 C-32.040000915527344,50.1349983215332 -71.37100219726562,29.86400032043457 -110.7040023803711,9.592000007629395 C-110.7040023803711,9.592000007629395 -298.2460021972656,98.98300170898438 -298.2460021972656,98.98300170898438 C-298.2460021972656,98.98300170898438 -298.2460021972656,65.27799987792969 -298.2460021972656,65.27799987792969z"></path></g></g><g clip-path="url(#__lottie_element_4)" style="display: block;" transform="matrix(1,0,0,1,621,311)" opacity="1"><g opacity="1" transform="matrix(1,0,0,1,298.8710021972656,99.3759994506836)"><path fill="rgb(0,0,0)" fill-opacity="1" d=" M-298.2460021972656,65.27799987792969 C-298.2460021972656,65.27799987792969 -110.7040023803711,-25.57699966430664 -110.7040023803711,-25.57699966430664 C-110.7040023803711,-25.57699966430664 13.88599967956543,34.505001068115234 13.88599967956543,34.505001068115234 C13.88599967956543,34.505001068115234 230.76800537109375,-71.00599670410156 230.76800537109375,-71.00599670410156 C228.75,-80.33100128173828 226.73300170898438,-89.65699768066406 224.71400451660156,-98.98300170898438 C249.22500610351562,-94.55699920654297 273.7349853515625,-90.13200378417969 298.2460021972656,-85.70600128173828 C298.2460021972656,-85.70600128173828 260.4590148925781,-20.344999313354492 260.4590148925781,-20.344999313354492 C255.69400024414062,-29.202999114990234 250.92999267578125,-38.0629997253418 246.16700744628906,-46.922000885009766 C166.54200744628906,-7.811999797821045 86.91699981689453,31.29800033569336 7.291999816894531,70.40699768066406 C-32.040000915527344,50.1349983215332 -71.37100219726562,29.86400032043457 -110.7040023803711,9.592000007629395 C-110.7040023803711,9.592000007629395 -298.2460021972656,98.98300170898438 -298.2460021972656,98.98300170898438 C-298.2460021972656,98.98300170898438 -298.2460021972656,65.27799987792969 -298.2460021972656,65.27799987792969z"></path></g></g></g></svg>