<svg xmlns="http://www.w3.org/2000/svg" enable-background="new 0 0 64 64" viewBox="0 0 64 64" id="chemical-test"><path fill="#eff3f3" d="M43.62,34.35l-9.29,24.59c-0.26,0.69-0.93,1.15-1.67,1.15H11.11c-0.74,0-1.41-0.46-1.67-1.15L0.16,34.35
			c-0.38-1.01-0.06-2.15,0.78-2.83l12.13-9.63c1.26-1,2-2.52,2-4.13v-2.85H13.9c-1.16,0-2.09-1.04-1.9-2.25
			c0.15-0.95,1.03-1.61,1.99-1.61h15.79c0.96,0,1.84,0.66,1.99,1.61c0.19,1.21-0.74,2.25-1.9,2.25h-1.16v2.85
			c0,1.61,0.73,3.13,2,4.13l12.13,9.63C43.69,32.2,44,33.34,43.62,34.35z"></path><polygon fill="#ea9847" points="39.96 34.87 32.59 55.73 32.25 56.68 11.53 56.68 3.82 34.87"></polygon><polygon fill="#faa951" points="39.26 36.85 32.59 55.73 32.25 56.68 13.44 56.68 6.89 36.85"></polygon><path fill="#e8eae7" d="M27.4 39.6c0 .73-.59 1.32-1.32 1.32-.73 0-1.32-.59-1.32-1.32 0-.73.59-1.32 1.32-1.32C26.81 38.28 27.4 38.87 27.4 39.6zM20.81 39.58c.24.98-.63 1.85-1.61 1.61-.46-.11-.84-.49-.95-.95-.24-.98.63-1.85 1.61-1.61C20.31 38.74 20.69 39.12 20.81 39.58zM33.24 45.39c0 1.52-1.23 2.75-2.75 2.75s-2.75-1.23-2.75-2.75c0-1.52 1.23-2.75 2.75-2.75S33.24 43.87 33.24 45.39zM28.7 52.82c0 1.03-.84 1.87-1.87 1.87-1.03 0-1.87-.84-1.87-1.87 0-1.03.84-1.87 1.87-1.87C27.86 50.95 28.7 51.79 28.7 52.82zM17.92 53.44c0 1.03-.84 1.87-1.87 1.87-1.03 0-1.87-.84-1.87-1.87s.84-1.87 1.87-1.87C17.08 51.57 17.92 52.41 17.92 53.44zM23.76 47.65c0 1.03-.84 1.87-1.87 1.87-1.03 0-1.87-.84-1.87-1.87 0-1.03.84-1.87 1.87-1.87C22.93 45.77 23.76 46.61 23.76 47.65zM16.05 44.89c0 1.03-.84 1.87-1.87 1.87-1.03 0-1.87-.84-1.87-1.87 0-1.03.84-1.87 1.87-1.87C15.21 43.02 16.05 43.86 16.05 44.89z"></path><path fill="#faa951" d="M31.81,12.98c0,1.07-0.86,1.93-1.92,1.93H13.9c-1.06,0-1.92-0.86-1.92-1.93c0-1.06,0.86-1.92,1.92-1.92
			h15.98C30.94,11.06,31.81,11.92,31.81,12.98z"></path><path fill="#eff3f3" d="M53.81,60.09L53.81,60.09c-4.08,0-7.39-3.31-7.39-7.39V5.68H61.2v47.02C61.2,56.79,57.89,60.09,53.81,60.09z
			"></path><path fill="#4bc8f1" d="M62,7.9H45.62c-1.1,0-2-0.89-2-2l0,0c0-1.1,0.89-1.99,2-1.99H62c1.1,0,2,0.89,2,1.99l0,0
			C64,7,63.11,7.9,62,7.9z"></path><path fill="#3ebedb" d="M59.49,22.62v0.14c-0.64-0.39-1.96-0.63-4.53,0.58c-4.29,2.01-6.28,0-6.28,0v29.68
			c0,1.15,0.34,2.22,0.93,3.12c-0.92-1.01-1.49-2.35-1.49-3.83V22.62c0,0,1.99,2.01,6.28,0C58.7,20.61,59.49,22.62,59.49,22.62z"></path><path fill="#4bc8f1" d="M59.49,22.75V52.3c0,3.14-2.54,5.68-5.68,5.68c-1.66,0-3.15-0.71-4.19-1.85c-0.59-0.89-0.93-1.97-0.93-3.12
			V23.33c0,0,1.99,2.01,6.28,0C57.54,22.13,58.85,22.37,59.49,22.75z"></path><path fill="#e8eae7" d="M58.72 44.4c0 .69-.56 1.25-1.25 1.25-.69 0-1.25-.56-1.25-1.25 0-.69.56-1.25 1.25-1.25C58.16 43.15 58.72 43.71 58.72 44.4zM53.41 41.56c0 .88-.71 1.59-1.59 1.59-.88 0-1.59-.71-1.59-1.59 0-.88.71-1.59 1.59-1.59C52.7 39.97 53.41 40.68 53.41 41.56zM57.95 29.34c0 .68-.55 1.24-1.24 1.24-.68 0-1.24-.55-1.24-1.24 0-.68.55-1.24 1.24-1.24C57.39 28.1 57.95 28.65 57.95 29.34zM53.77 33.23c0 .9-.73 1.63-1.63 1.63-.9 0-1.63-.73-1.63-1.63 0-.9.73-1.63 1.63-1.63C53.04 31.6 53.77 32.33 53.77 33.23zM58.51 37.57c0 .75-.6 1.35-1.35 1.35-.75 0-1.35-.6-1.35-1.35s.6-1.35 1.35-1.35C57.9 36.22 58.51 36.83 58.51 37.57zM53.1 47.48c0 .7-.57 1.27-1.27 1.27-.7 0-1.27-.57-1.27-1.27 0-.7.57-1.27 1.27-1.27C52.53 46.21 53.1 46.78 53.1 47.48zM53.58 54.07c0 .79-.64 1.44-1.44 1.44-.79 0-1.43-.64-1.43-1.44 0-.79.64-1.43 1.43-1.43C52.93 52.64 53.58 53.28 53.58 54.07zM58.11 50.65c0 .79-.64 1.43-1.43 1.43-.79 0-1.43-.64-1.43-1.43 0-.79.64-1.43 1.43-1.43C57.47 49.22 58.11 49.86 58.11 50.65z"></path></svg>