<svg xmlns="http://www.w3.org/2000/svg" enable-background="new 0 0 50 50" viewBox="0 0 50 50" id="idea-generation"><path d="M36.8,28.4c-3.2,0-5.9,2.6-5.9,5.9s2.6,5.9,5.9,5.9s5.9-2.6,5.9-5.9S40,28.4,36.8,28.4z M36.8,38.2c-2.1,0-3.9-1.7-3.9-3.9
		c0-2.2,1.7-3.9,3.9-3.9s3.9,1.7,3.9,3.9C40.7,36.5,38.9,38.2,36.8,38.2z"></path><path d="M46.7,26.9l-2.5-2.5c-0.3-0.3-0.8-0.4-1.2-0.1l-2.4,1.5c-0.1,0-0.2-0.1-0.3-0.1l-0.7-2.8c-0.1-0.5-0.5-0.8-1-0.8h-3.6
		c-0.5,0-0.9,0.3-1,0.8l-0.7,2.8c-0.1,0-0.2,0.1-0.3,0.1l-2.4-1.5c-0.4-0.2-0.9-0.2-1.2,0.1l-2.5,2.5c-0.3,0.3-0.4,0.8-0.1,1.2
		l1.5,2.5c0,0.1-0.1,0.2-0.1,0.3l-2.8,0.7c-0.5,0.1-0.8,0.5-0.8,1v3.6c0,0.5,0.3,0.9,0.8,1l2.8,0.7c0,0.1,0.1,0.2,0.1,0.3l-1.5,2.4
		c-0.2,0.4-0.2,0.9,0.1,1.2l2.5,2.5c0.3,0.3,0.8,0.4,1.2,0.1l2.4-1.5c0.1,0,0.2,0.1,0.3,0.1l0.7,2.8c0.1,0.5,0.5,0.8,1,0.8h3.6
		c0.5,0,0.9-0.3,1-0.8l0.7-2.8c0.1,0,0.2-0.1,0.3-0.1l2.4,1.5c0.4,0.2,0.9,0.2,1.2-0.1l2.5-2.5c0.3-0.3,0.4-0.8,0.1-1.2L45.3,38
		c0-0.1,0.1-0.2,0.1-0.3l2.8-0.7c0.5-0.1,0.8-0.5,0.8-1v-3.6c0-0.5-0.3-0.9-0.8-1l-2.8-0.7c0-0.1-0.1-0.2-0.1-0.3l1.5-2.4
		C47,27.7,47,27.2,46.7,26.9z M47,33.3v2l-2.5,0.6c-0.3,0.1-0.6,0.3-0.7,0.7c-0.1,0.3-0.3,0.7-0.4,1.1c-0.1,0.3-0.1,0.7,0,1l1.4,2.3
		l-1.4,1.4l-2.2-1.4c-0.3-0.2-0.7-0.2-1,0c-0.3,0.2-0.7,0.3-1.1,0.5c-0.3,0.1-0.6,0.4-0.7,0.7l-0.6,2.6h-2l-0.6-2.5
		c-0.1-0.3-0.3-0.6-0.7-0.7c-0.4-0.1-0.7-0.3-1.1-0.4c-0.3-0.2-0.7-0.1-1,0l-2.2,1.4l-1.4-1.4l1.4-2.2c0.2-0.3,0.2-0.7,0-1
		c-0.2-0.3-0.3-0.7-0.4-1c0-0.1,0-0.1-0.1-0.2c-0.1-0.3-0.4-0.5-0.7-0.6l-2.6-0.6v-2l2.5-0.6c0.3-0.1,0.6-0.3,0.7-0.7
		c0.1-0.4,0.3-0.7,0.4-1.1c0.2-0.3,0.1-0.7,0-1l-1.4-2.3l1.4-1.4l2.2,1.4c0.3,0.2,0.7,0.2,1,0c0.4-0.2,0.7-0.3,1.1-0.4
		c0.3-0.1,0.6-0.4,0.7-0.7l0.6-2.6h2l0.6,2.5c0.1,0.3,0.3,0.6,0.7,0.7c0.3,0.1,0.7,0.3,1,0.4c0.3,0.2,0.7,0.1,1,0l2.2-1.4l1.4,1.4
		L43.3,30c-0.2,0.3-0.2,0.7,0,1c0.2,0.4,0.3,0.7,0.4,1.1c0.1,0.3,0.4,0.6,0.7,0.7L47,33.3z"></path><path d="M15.1,3.4c-5.1,0-9.6,2.6-12.2,7c-2.5,4.4-2.6,9.7,0,14.2c0,0,3.3,4.7,4.8,7.9c0.4,0.8,0.6,1.8,0.6,2.7c0,0,0,0,0,0
		c0,0,0,0,0,0v8c0,1.9,1.5,3.5,3.5,3.5h6.4c1.9,0,3.5-1.5,3.5-3.5v-8c0,0,0,0,0-0.1c0-2.7,2.2-5.5,5.5-10.6c1.2-2.2,1.9-4.6,1.9-7
		C29.2,9.7,22.9,3.4,15.1,3.4z M19.8,43.2c0,0.8-0.7,1.5-1.5,1.5h-6.4c-0.8,0-1.5-0.7-1.5-1.5v-1.8h4.7c0.6,0,1-0.4,1-1s-0.4-1-1-1
		h-4.7v-3.2h9.3V43.2z M25.6,23.4c-1.7,2.4-5.4,7.9-5.8,10.7h-3.7V21.6l2.8-4.1c0.3-0.5,0.2-1.1-0.3-1.4c-0.5-0.3-1.1-0.2-1.4,0.3
		L14.8,20l-2.7-1.4c-0.5-0.3-1.1-0.1-1.3,0.4c-0.3,0.5-0.1,1.1,0.4,1.3l3,1.5v12.3h-3.7c-0.1-0.9-0.4-1.8-0.8-2.6
		c-1.6-3.3-4.9-7.9-5-8c-2.2-3.8-2.2-8.3,0-12.1c2.2-3.8,6.1-6,10.5-6c6.7,0,12.1,5.4,12.1,12.1C27.2,19.6,26.7,21.6,25.6,23.4z"></path></svg>